<svg xmlns="http://www.w3.org/2000/svg" xmlns:xlink="http://www.w3.org/1999/xlink" version="1.1" width="256" height="256" viewBox="0 0 256 256" xml:space="preserve">

<defs>
</defs>
<g style="stroke: none; stroke-width: 0; stroke-dasharray: none; stroke-linecap: butt; stroke-linejoin: miter; stroke-miterlimit: 10; fill: none; fill-rule: nonzero; opacity: 1;" transform="translate(1.4065934065934016 1.4065934065934016) scale(2.81 2.81)" >
	<path d="M 71.361 26.012 C 69.67 14.044 59.257 4.735 46.916 4.735 h -3.832 c -12.341 0 -22.753 9.309 -24.444 21.276 C 8.234 26.765 0 35.472 0 46.066 c 0 11.087 9.02 20.107 20.107 20.107 h 15.428 c 1.657 0 3 -1.343 3 -3 s -1.343 -3 -3 -3 H 20.107 C 12.329 60.174 6 53.845 6 46.065 c 0 -7.779 6.329 -14.107 14.107 -14.107 h 1.297 c 1.631 0 2.963 -1.303 3 -2.934 c 0.221 -10.084 8.601 -18.289 18.68 -18.289 h 3.832 c 10.078 0 18.459 8.205 18.681 18.289 c 0.035 1.631 1.368 2.934 2.999 2.934 h 1.297 C 77.672 31.958 84 38.287 84 46.066 s -6.328 14.107 -14.107 14.107 H 55.806 C 48.193 60.174 42 66.367 42 73.979 v 1.043 l -3.268 -3.268 c -1.171 -1.172 -3.071 -1.172 -4.242 0 c -1.172 1.171 -1.172 3.071 0 4.242 l 8.386 8.386 c 0.14 0.141 0.295 0.266 0.461 0.377 c 0.071 0.047 0.148 0.08 0.222 0.121 c 0.097 0.054 0.191 0.112 0.294 0.155 c 0.098 0.04 0.199 0.063 0.3 0.093 c 0.087 0.026 0.17 0.059 0.26 0.077 c 0.194 0.039 0.39 0.059 0.587 0.059 c 0.197 0 0.393 -0.021 0.587 -0.059 c 0.092 -0.018 0.178 -0.053 0.267 -0.079 c 0.098 -0.029 0.197 -0.051 0.292 -0.091 c 0.108 -0.045 0.206 -0.105 0.307 -0.162 c 0.069 -0.039 0.142 -0.069 0.208 -0.113 c 0.167 -0.111 0.322 -0.237 0.463 -0.379 l 8.385 -8.385 c 1.172 -1.171 1.172 -3.071 0 -4.242 c -1.172 -1.172 -3.07 -1.172 -4.242 0 L 48 75.022 v -1.043 c 0 -4.304 3.502 -7.806 7.806 -7.806 h 14.087 C 80.979 66.174 90 57.153 90 46.065 C 90 35.473 81.765 26.766 71.361 26.012 z" style="stroke: none; stroke-width: 1; stroke-dasharray: none; stroke-linecap: butt; stroke-linejoin: miter; stroke-miterlimit: 10; fill: rgb(17,33,234); fill-rule: nonzero; opacity: 1;" transform=" matrix(1 0 0 1 0 0) " stroke-linecap="round" />
</g>
</svg>